# xmcd CD database file
#
# Track frame offsets:
#	150
#	22762
#	41142
#	62822
#	84787
#	100600
#	118972
#	135675
#	158122
#	176195
#
# Disc length: 2586 seconds
#
# Revision: 0
# Processed by: cddbd v1.5.1PL0 Copyright (c) Steve Scherf et al.
# Submitted via: CDex 1.51
#
DISCID=7c0a180a
DTITLE=Dionne Warwick - Friends In Love
DYEAR=1982
DGENRE=Weastcoast/AOR
TTITLE0=For You
TTITLE1=Friends In Love
TTITLE2=Never Gonna Let You Go
TTITLE3=Can't Hide Love
TTITLE4=Betcha By Golly Wow
TTITLE5=More Than Fascination
TTITLE6=Got You Where I Want You
TTITLE7=With A Touch
TTITLE8=What Is This
TTITLE9=A Love So Right
EXTD=YEAR: 1982
EXTT0=
EXTT1=
EXTT2=
EXTT3=
EXTT4=
EXTT5=
EXTT6=
EXTT7=
EXTT8=
EXTT9=
PLAYORDER=
